<?xml version="1.0" encoding="UTF-8" standalone="no"?>
<svg
   xmlns:dc="http://purl.org/dc/elements/1.1/"
   xmlns:cc="http://creativecommons.org/ns#"
   xmlns:rdf="http://www.w3.org/1999/02/22-rdf-syntax-ns#"
   xmlns:svg="http://www.w3.org/2000/svg"
   xmlns="http://www.w3.org/2000/svg"
   xmlns:sodipodi="http://sodipodi.sourceforge.net/DTD/sodipodi-0.dtd"
   xmlns:inkscape="http://www.inkscape.org/namespaces/inkscape"
   aria-hidden="true"
   focusable="false"
   data-prefix="fab"
   data-icon="linkedin-in"
   class="svg-inline--fa fa-linkedin-in fa-w-14"
   role="img"
   viewBox="0 0 448 447.98999"
   version="1.1"
   id="svg4"
   sodipodi:docname="linkedin-in-brands-hover.svg"
   inkscape:version="1.0.1 (3bc2e813f5, 2020-09-07)"
   width="448"
   height="447.98999">
  <metadata
     id="metadata10">
    <rdf:RDF>
      <cc:Work
         rdf:about="">
        <dc:format>image/svg+xml</dc:format>
        <dc:type
           rdf:resource="http://purl.org/dc/dcmitype/StillImage" />
        <dc:title />
      </cc:Work>
    </rdf:RDF>
  </metadata>
  <defs
     id="defs8" />
  <sodipodi:namedview
     pagecolor="#ffffff"
     bordercolor="#666666"
     borderopacity="1"
     objecttolerance="10"
     gridtolerance="10"
     guidetolerance="10"
     inkscape:pageopacity="0"
     inkscape:pageshadow="2"
     inkscape:window-width="1920"
     inkscape:window-height="1017"
     id="namedview6"
     showgrid="false"
     inkscape:zoom="1.0615809"
     inkscape:cx="225.10155"
     inkscape:cy="323.59824"
     inkscape:window-x="-8"
     inkscape:window-y="-8"
     inkscape:window-maximized="1"
     inkscape:current-layer="svg4"
     fit-margin-top="0"
     fit-margin-left="0"
     fit-margin-right="0"
     fit-margin-bottom="0"
     inkscape:document-rotation="0" />
  <path
     fill="currentColor"
     d="M 100.28,447.99 H 7.4 v -299.1 h 92.88 z M 53.79,108.09 C 24.09,108.09 0,83.49 0,53.79 a 53.79,53.79 0 0 1 107.58,0 c 0,29.7 -24.1,54.3 -53.79,54.3 z m 394.11,339.9 h -92.68 v -145.6 c 0,-34.7 -0.7,-79.2 -48.29,-79.2 -48.29,0 -55.69,37.7 -55.69,76.7 v 148.1 h -92.78 v -299.1 h 89.08 v 40.8 h 1.3 c 12.4,-23.5 42.69,-48.3 87.88,-48.3 94,0 111.28,61.9 111.28,142.3 v 164.3 z"
     id="path2"
     style="fill:#ffffff;fill-opacity:1" />
</svg>
